<svg width="46" height="46" viewBox="0 0 46 46" fill="none" xmlns="http://www.w3.org/2000/svg">
<g clip-path="url(#clip0_196_462)">
<path d="M21.0834 3.92916V9.7175C14.582 10.6509 9.58337 16.2437 9.58337 23C9.58337 30.4098 15.5902 36.4167 23 36.4167C26.013 36.4167 28.796 35.4238 31.0347 33.7448L35.1306 37.8407C31.8263 40.5432 27.6 42.1667 23 42.1667C12.4143 42.1667 3.83337 33.5857 3.83337 23C3.83337 13.0621 11.3985 4.88941 21.0834 3.92916ZM42.0709 24.9167C41.6875 28.7711 40.1657 32.2901 37.8408 35.1287L33.7449 31.0347C35.0616 29.279 35.9548 27.1898 36.2806 24.9167H42.0728H42.0709ZM24.9205 3.92916C33.9749 4.82808 41.1739 12.029 42.0747 21.0833H36.2825C35.443 15.2087 30.7951 10.5608 24.9205 9.71941V3.92725V3.92916Z" fill="#D04741"/>
</g>
<defs>
<clipPath id="clip0_196_462">
<rect width="46" height="46" fill="white"/>
</clipPath>
</defs>
</svg>
