<svg width="46" height="46" viewBox="0 0 46 46" fill="none" xmlns="http://www.w3.org/2000/svg">
<g clip-path="url(#clip0_172_2243)">
<path d="M29.5205 40.25V26.8985H33.9921L34.661 21.7082H29.5205V18.3962C29.5205 16.8935 29.9383 15.8681 32.0927 15.8681H34.8412V11.2259C33.5106 11.0847 32.1733 11.0163 30.8353 11.0208C26.8736 11.0208 24.1615 13.4397 24.1615 17.8825V21.7082H19.6803V26.8985H24.1615V40.25H7.66667C7.15833 40.25 6.67082 40.0481 6.31138 39.6886C5.95193 39.3292 5.75 38.8417 5.75 38.3333V7.66667C5.75 7.15833 5.95193 6.67082 6.31138 6.31138C6.67082 5.95193 7.15833 5.75 7.66667 5.75H38.3333C38.8417 5.75 39.3292 5.95193 39.6886 6.31138C40.0481 6.67082 40.25 7.15833 40.25 7.66667V38.3333C40.25 38.8417 40.0481 39.3292 39.6886 39.6886C39.3292 40.0481 38.8417 40.25 38.3333 40.25H29.5205Z" fill="#D04741"/>
</g>
<defs>
<clipPath id="clip0_172_2243">
<rect width="46" height="46" fill="white"/>
</clipPath>
</defs>
</svg>
