<svg width="46" height="46" viewBox="0 0 46 46" fill="none" xmlns="http://www.w3.org/2000/svg">
<g clip-path="url(#clip0_172_2038)">
<path d="M23.0002 3.83325C28.2077 3.83325 28.8575 3.85242 30.9007 3.94825C32.9419 4.04409 34.3315 4.36417 35.5543 4.8395C36.8193 5.32634 37.885 5.98567 38.9507 7.04942C39.9253 8.00755 40.6794 9.16655 41.1606 10.4458C41.634 11.6667 41.956 13.0582 42.0518 15.0994C42.1419 17.1426 42.1668 17.7923 42.1668 22.9999C42.1668 28.2075 42.1477 28.8573 42.0518 30.9004C41.956 32.9417 41.634 34.3312 41.1606 35.5541C40.6808 36.834 39.9265 37.9933 38.9507 38.9504C37.9923 39.9247 36.8333 40.6788 35.5543 41.1603C34.3334 41.6338 32.9419 41.9558 30.9007 42.0516C28.8575 42.1417 28.2077 42.1666 23.0002 42.1666C17.7926 42.1666 17.1428 42.1474 15.0997 42.0516C13.0584 41.9558 11.6688 41.6338 10.446 41.1603C9.16629 40.6802 8.00709 39.9259 7.04966 38.9504C6.07486 37.9924 5.3207 36.8334 4.83975 35.5541C4.36441 34.3332 4.04433 32.9417 3.9485 30.9004C3.85841 28.8573 3.8335 28.2075 3.8335 22.9999C3.8335 17.7923 3.85266 17.1426 3.9485 15.0994C4.04433 13.0563 4.36441 11.6686 4.83975 10.4458C5.31937 9.16576 6.0737 8.00645 7.04966 7.04942C8.00737 6.07428 9.16648 5.32007 10.446 4.8395C11.6688 4.36417 13.0565 4.04409 15.0997 3.94825C17.1428 3.85817 17.7926 3.83325 23.0002 3.83325ZM23.0002 13.4166C20.4585 13.4166 18.0209 14.4263 16.2237 16.2235C14.4265 18.0207 13.4168 20.4583 13.4168 22.9999C13.4168 25.5416 14.4265 27.9791 16.2237 29.7764C18.0209 31.5736 20.4585 32.5833 23.0002 32.5833C25.5418 32.5833 27.9794 31.5736 29.7766 29.7764C31.5738 27.9791 32.5835 25.5416 32.5835 22.9999C32.5835 20.4583 31.5738 18.0207 29.7766 16.2235C27.9794 14.4263 25.5418 13.4166 23.0002 13.4166ZM35.4585 12.9374C35.4585 12.302 35.2061 11.6926 34.7568 11.2433C34.3075 10.794 33.6981 10.5416 33.0627 10.5416C32.4272 10.5416 31.8179 10.794 31.3686 11.2433C30.9192 11.6926 30.6668 12.302 30.6668 12.9374C30.6668 13.5728 30.9192 14.1822 31.3686 14.6315C31.8179 15.0808 32.4272 15.3333 33.0627 15.3333C33.6981 15.3333 34.3075 15.0808 34.7568 14.6315C35.2061 14.1822 35.4585 13.5728 35.4585 12.9374ZM23.0002 17.2499C24.5252 17.2499 25.9877 17.8557 27.066 18.9341C28.1444 20.0124 28.7502 21.4749 28.7502 22.9999C28.7502 24.5249 28.1444 25.9874 27.066 27.0658C25.9877 28.1441 24.5252 28.7499 23.0002 28.7499C21.4752 28.7499 20.0126 28.1441 18.9343 27.0658C17.856 25.9874 17.2502 24.5249 17.2502 22.9999C17.2502 21.4749 17.856 20.0124 18.9343 18.9341C20.0126 17.8557 21.4752 17.2499 23.0002 17.2499Z" fill="#D04741"/>
</g>
<defs>
<clipPath id="clip0_172_2038">
<rect width="46" height="46" fill="white"/>
</clipPath>
</defs>
</svg>
