<svg width="46" height="46" viewBox="0 0 46 46" fill="none" xmlns="http://www.w3.org/2000/svg">
<g clip-path="url(#clip0_172_2241)">
<path d="M35.1421 35.1498H30.0342V27.1438C30.0342 25.2348 29.9958 22.7777 27.37 22.7777C24.7077 22.7777 24.3014 24.8553 24.3014 27.0039V35.1498H19.1916V18.6875H24.0982V20.93H24.1653C24.8515 19.6382 26.519 18.2716 29.0107 18.2716C34.1857 18.2716 35.144 21.6794 35.144 26.1127V35.1498H35.1421ZM13.4224 16.4354C13.0325 16.4359 12.6463 16.3595 12.286 16.2104C11.9256 16.0614 11.5983 15.8427 11.3226 15.5669C11.047 15.291 10.8285 14.9635 10.6797 14.6031C10.5309 14.2427 10.4547 13.8564 10.4554 13.4665C10.4558 12.8797 10.6302 12.3062 10.9565 11.8184C11.2828 11.3307 11.7465 10.9507 12.2888 10.7265C12.8311 10.5023 13.4277 10.4439 14.0031 10.5588C14.5786 10.6737 15.1071 10.9566 15.5218 11.3718C15.9364 11.787 16.2187 12.3158 16.3328 12.8915C16.4469 13.4671 16.3877 14.0636 16.1628 14.6056C15.9379 15.1476 15.5573 15.6107 15.0692 15.9365C14.5811 16.2622 14.0073 16.4358 13.4205 16.4354H13.4224ZM15.9831 35.1498H10.8598V18.6875H15.985V35.1498H15.9831ZM37.7008 5.75H8.29725C6.88658 5.75 5.75 6.86167 5.75 8.23592V37.7641C5.75 39.1383 6.8885 40.25 8.29533 40.25H37.6932C39.1 40.25 40.25 39.1383 40.25 37.7641V8.23592C40.25 6.86167 39.1 5.75 37.6932 5.75H37.6989H37.7008Z" fill="#D04741"/>
</g>
<defs>
<clipPath id="clip0_172_2241">
<rect width="46" height="46" fill="white"/>
</clipPath>
</defs>
</svg>
