<svg width="26" height="26" viewBox="0 0 26 26" fill="none" xmlns="http://www.w3.org/2000/svg">
<g clip-path="url(#clip0_207_247)">
<path d="M3.25033 3.25H22.7503C23.0376 3.25 23.3132 3.36414 23.5164 3.5673C23.7195 3.77047 23.8337 4.04602 23.8337 4.33333V21.6667C23.8337 21.954 23.7195 22.2295 23.5164 22.4327C23.3132 22.6359 23.0376 22.75 22.7503 22.75H3.25033C2.96301 22.75 2.68746 22.6359 2.48429 22.4327C2.28113 22.2295 2.16699 21.954 2.16699 21.6667V4.33333C2.16699 4.04602 2.28113 3.77047 2.48429 3.5673C2.68746 3.36414 2.96301 3.25 3.25033 3.25ZM13.0653 12.6566L6.11899 6.75783L4.71608 8.40883L13.0794 15.5101L21.2922 8.40342L19.8752 6.76433L13.0664 12.6566H13.0653Z" fill="#FAFAFA"/>
</g>
<defs>
<clipPath id="clip0_207_247">
<rect width="26" height="26" fill="white"/>
</clipPath>
</defs>
</svg>
