<svg width="46" height="46" viewBox="0 0 46 46" fill="none" xmlns="http://www.w3.org/2000/svg">
<g clip-path="url(#clip0_125_1231)">
<path d="M34.5595 31.8492L42.7685 40.0563L40.0565 42.7684L31.8493 34.5593C28.7955 37.0073 24.9972 38.3388 21.0834 38.3333C11.5614 38.3333 3.83337 30.6053 3.83337 21.0833C3.83337 11.5613 11.5614 3.83325 21.0834 3.83325C30.6054 3.83325 38.3334 11.5613 38.3334 21.0833C38.3389 24.9971 37.0075 28.7954 34.5595 31.8492ZM30.7146 30.427C33.1471 27.9255 34.5055 24.5724 34.5 21.0833C34.5 13.6696 28.4951 7.66659 21.0834 7.66659C13.6697 7.66659 7.66671 13.6696 7.66671 21.0833C7.66671 28.495 13.6697 34.4999 21.0834 34.4999C24.5725 34.5054 27.9257 33.147 30.4271 30.7145L30.7146 30.427ZM23.3412 13.7539C22.776 14.0092 22.2812 14.3978 21.8993 14.8864C21.5173 15.375 21.2596 15.9489 21.1482 16.559C21.0369 17.1691 21.0752 17.797 21.2599 18.3891C21.4446 18.9811 21.7702 19.5194 22.2087 19.9579C22.6472 20.3965 23.1856 20.722 23.7776 20.9067C24.3696 21.0914 24.9976 21.1298 25.6076 21.0184C26.2177 20.907 26.7917 20.6493 27.2802 20.2673C27.7688 19.8854 28.1574 19.3906 28.4127 18.8254C28.9164 20.4615 28.858 22.2192 28.2469 23.8182C27.6357 25.4173 26.507 26.7659 25.0404 27.649C23.5739 28.5321 21.854 28.899 20.1548 28.6912C18.4556 28.4834 16.8748 27.7129 15.6643 26.5024C14.4538 25.2919 13.6832 23.7111 13.4754 22.0118C13.2676 20.3126 13.6345 18.5927 14.5176 17.1262C15.4008 15.6597 16.7493 14.5309 18.3484 13.9198C19.9475 13.3086 21.7051 13.2502 23.3412 13.7539Z" fill="#D04741"/>
</g>
<defs>
<clipPath id="clip0_125_1231">
<rect width="46" height="46" fill="white"/>
</clipPath>
</defs>
</svg>
