<svg width="46" height="46" viewBox="0 0 46 46" fill="none" xmlns="http://www.w3.org/2000/svg">
<g clip-path="url(#clip0_117_47)">
<path d="M23 1.91663L41.2083 12.4583V33.5416L23 44.0833L4.79163 33.5416V12.4583L23 1.91663ZM23 28.75C24.525 28.75 25.9875 28.1442 27.0658 27.0658C28.1442 25.9875 28.75 24.525 28.75 23C28.75 21.475 28.1442 20.0124 27.0658 18.9341C25.9875 17.8558 24.525 17.25 23 17.25C21.475 17.25 20.0124 17.8558 18.9341 18.9341C17.8558 20.0124 17.25 21.475 17.25 23C17.25 24.525 17.8558 25.9875 18.9341 27.0658C20.0124 28.1442 21.475 28.75 23 28.75Z" fill="#D04741"/>
</g>
<defs>
<clipPath id="clip0_117_47">
<rect width="46" height="46" fill="white"/>
</clipPath>
</defs>
</svg>
