<svg width="50" height="50" viewBox="0 0 50 50" fill="none" xmlns="http://www.w3.org/2000/svg">
<g clip-path="url(#clip0_196_608)">
<path d="M4.41506 28.2254C4.04361 25.9904 4.04361 23.7094 4.41506 21.4744C6.69712 21.5283 8.74725 20.4349 9.54452 18.5111C10.3418 16.5852 9.66463 14.3611 8.0121 12.7894C9.33001 10.9449 10.9435 9.33066 12.7874 8.01196C14.3613 9.66448 16.5854 10.3416 18.5112 9.54437C20.4371 8.7471 21.5284 6.69491 21.4725 4.41492C23.7088 4.04301 25.9912 4.04301 28.2276 4.41492C28.1717 6.69698 29.2651 8.7471 31.1889 9.54437C33.1147 10.3416 35.3388 9.66448 36.9106 8.01196C38.7551 9.32986 40.3693 10.9434 41.688 12.7873C40.0355 14.3611 39.3583 16.5852 40.1556 18.5111C40.9529 20.437 43.005 21.5283 45.285 21.4724C45.6569 23.7087 45.6569 25.9911 45.285 28.2274C43.003 28.1715 40.9529 29.2649 40.1556 31.1887C39.3583 33.1146 40.0355 35.3387 41.688 36.9104C40.3701 38.7549 38.7566 40.3691 36.9127 41.6879C35.3388 40.0353 33.1147 39.3582 31.1889 40.1554C29.263 40.9527 28.1717 43.0049 28.2276 45.2849C25.9912 45.6568 23.7088 45.6568 21.4725 45.2849C21.5284 43.0028 20.435 40.9527 18.5112 40.1554C16.5854 39.3582 14.3613 40.0353 12.7895 41.6879C10.945 40.3699 9.33081 38.7565 8.0121 36.9125C9.66463 35.3387 10.3418 33.1146 9.54452 31.1887C8.74725 29.2628 6.69505 28.1715 4.41506 28.2274V28.2254ZM24.85 31.0624C26.4977 31.0624 28.0779 30.4079 29.2429 29.2428C30.408 28.0777 31.0625 26.4976 31.0625 24.8499C31.0625 23.2022 30.408 21.6221 29.2429 20.457C28.0779 19.2919 26.4977 18.6374 24.85 18.6374C23.2024 18.6374 21.6222 19.2919 20.4571 20.457C19.2921 21.6221 18.6375 23.2022 18.6375 24.8499C18.6375 26.4976 19.2921 28.0777 20.4571 29.2428C21.6222 30.4079 23.2024 31.0624 24.85 31.0624Z" fill="#D04741"/>
</g>
<defs>
<clipPath id="clip0_196_608">
<rect width="49.7" height="49.7" fill="white"/>
</clipPath>
</defs>
</svg>
