<svg width="46" height="46" viewBox="0 0 46 46" fill="none" xmlns="http://www.w3.org/2000/svg">
<path d="M40.849 0H5.15104C3.71354 0 2.49566 0.499132 1.4974 1.4974C0.499132 2.49566 0 3.71354 0 5.15104V40.849C0 42.2865 0.499132 43.5043 1.4974 44.5026C2.49566 45.5009 3.71354 46 5.15104 46H40.849C42.2865 46 43.5043 45.5009 44.5026 44.5026C45.5009 43.5043 46 42.2865 46 40.849V5.15104C46 3.71354 45.5009 2.49566 44.5026 1.4974C43.5043 0.499132 42.2865 0 40.849 0ZM15.3333 35.8177H10.1823V23H15.3333V35.8177ZM25.5156 35.8177H20.4844V28.151H25.5156V35.8177ZM25.5156 23H20.4844V17.849H25.5156V23ZM35.8177 35.8177H30.6667V10.1823H35.8177V35.8177Z" fill="#D32F2F"/>
</svg>
